<svg version="1.2" xmlns="http://www.w3.org/2000/svg" viewBox="0 0 51 47" width="51" height="47"><style>.a{fill:#101012}</style><path fill-rule="evenodd" class="a" d="m51.1 18.4v19.4c0 1.9-1.6 3.4-3.4 3.4h-24.7c-0.6 0-1.2 0.6-1.2 1.2v4.2h-2.2v-4.2c0-1.9 1.5-3.4 3.4-3.4h24.7c0.6 0 1.1-0.5 1.1-1.2v-19.4c0-0.6-0.5-1.1-1.1-1.1h-11.7c-0.1 3-1 5.8-2.4 7.9-1.4 2.2-3.5 3.8-5.9 3.9v0.1h-0.5q0 0 0 0 0 0 0 0h-11.6c-0.5 1.2-1.7 2.1-3.1 2.1h-3.1c-1.9 0-3.4-1.5-3.4-3.3v-4.6h-4.9c-0.7 0-1.2-0.5-1.2-1.1 0-0.6 0.5-1.1 1.2-1.1h4.9v-9.5h-4.9c-0.7 0-1.2-0.5-1.2-1.1 0-0.6 0.5-1.1 1.2-1.1h4.9v-5.7c0-1.9 1.5-3.4 3.4-3.4h3.1c1.6 0 3 1.2 3.3 2.8h11.4q0 0 0 0 0 0 0 0h0.5c2.4 0.2 4.5 1.7 5.9 4 1.4 2.1 2.3 4.8 2.4 7.8h11.7c1.8 0 3.4 1.6 3.4 3.4zm-37.5 9.6c0 0.6-0.5 1.1-1.1 1.1h-3.1c-0.7 0-1.2-0.5-1.2-1.1v-24.2c0-0.6 0.5-1.1 1.2-1.2h3.1c0.6 0.1 1.1 0.6 1.1 1.2zm2.3-1.1v-21.4h6.3 3.2v0.4 20.6 0.4h-3.2zm15.8-2.9c-1.1 1.7-2.6 2.7-4 2.9v-21.4c1.4 0.2 2.9 1.2 4 2.9 1.3 2 2.1 4.7 2.1 7.8 0 3.1-0.8 5.9-2.1 7.8z"/></svg>