<svg version="1.2" xmlns="http://www.w3.org/2000/svg" viewBox="0 0 46 46" width="46" height="46"><style>.a{fill:#101012}</style><path fill-rule="evenodd" class="a" d="m16.7 31.4l-1.6-1.6 23-23-3.8-3.8q-0.3-0.4-0.8-0.4-0.5 0-0.9 0.4l-24.2 24.2-1.6-1.6 24.2-24.2c0.7-0.7 1.6-1 2.5-1 0.9 0 1.7 0.3 2.4 1l9.2 9.2c0.7 0.7 1 1.5 1 2.4 0 0.9-0.3 1.8-1 2.5l-24.2 24.2-1.6-1.6 24.2-24.2q0.4-0.4 0.4-0.9c0-0.3-0.1-0.6-0.4-0.8l-3.8-3.8zm-11.3 0.4c-0.5-0.4-1-0.8-1.8-0.8-0.5 0-1.1 0.3-1.4 0.7-0.4 0.5-0.5 1-0.5 1.5l-0.8 9.1q0 0.2 0 0.3c0 0.8 0.3 1.6 0.8 2.2 0.6 0.5 1.4 0.8 2.2 0.8q0.1 0 0.2 0l9.2-0.8c0.5 0 1-0.1 1.5-0.5 0.4-0.3 0.7-0.9 0.7-1.4 0-0.8-0.4-1.3-0.8-1.8zm-1.4 11.6q-0.1 0-0.1 0c-0.5-0.1-0.7-0.3-0.8-0.8q0 0 0-0.1l0.8-9 9 9.1z"/></svg>